<?xml version="1.0" encoding="UTF-8" standalone="no"?>
<!DOCTYPE svg PUBLIC "-//W3C//DTD SVG 1.1//EN"
 "http://www.w3.org/Graphics/SVG/1.1/DTD/svg11.dtd">
<!-- Generated by graphviz version 2.43.0 (0)
 -->
<!-- Title: %3 Pages: 1 -->
<svg width="311pt" height="344pt"
 viewBox="0.00 0.00 311.36 343.86" xmlns="http://www.w3.org/2000/svg" xmlns:xlink="http://www.w3.org/1999/xlink">
<g id="graph0" class="graph" transform="scale(1 1) rotate(0) translate(4 339.86)">
<title>%3</title>
<polygon fill="white" stroke="transparent" points="-4,4 -4,-339.86 307.36,-339.86 307.36,4 -4,4"/>
<g id="clust1" class="cluster">
<title>cluster33</title>
<path fill="none" stroke="black" d="M35.36,-8C35.36,-8 141.36,-8 141.36,-8 147.36,-8 153.36,-14 153.36,-20 153.36,-20 153.36,-209.93 153.36,-209.93 153.36,-215.93 147.36,-221.93 141.36,-221.93 141.36,-221.93 35.36,-221.93 35.36,-221.93 29.36,-221.93 23.36,-215.93 23.36,-209.93 23.36,-209.93 23.36,-20 23.36,-20 23.36,-14 29.36,-8 35.36,-8"/>
<text text-anchor="middle" x="135.86" y="-15.8" font-family="Times,serif" font-size="14.00">33</text>
</g>
<!-- I0 -->
<g id="node1" class="node">
<title>I0</title>
<ellipse fill="none" stroke="black" cx="35.36" cy="-298.38" rx="35.21" ry="37.45"/>
<text text-anchor="middle" x="35.36" y="-309.68" font-family="Times,serif" font-size="14.00">I0</text>
<text text-anchor="middle" x="35.36" y="-294.68" font-family="Times,serif" font-size="14.00">~</text>
<text text-anchor="middle" x="35.36" y="-279.68" font-family="Times,serif" font-size="14.00">Beta</text>
</g>
<!-- Prev -->
<g id="node4" class="node">
<title>Prev</title>
<polygon fill="none" stroke="black" points="145.36,-213.93 31.36,-213.93 31.36,-160.93 145.36,-160.93 145.36,-213.93"/>
<text text-anchor="middle" x="88.36" y="-198.73" font-family="Times,serif" font-size="14.00">Prev</text>
<text text-anchor="middle" x="88.36" y="-183.73" font-family="Times,serif" font-size="14.00">~</text>
<text text-anchor="middle" x="88.36" y="-168.73" font-family="Times,serif" font-size="14.00">Deterministic</text>
</g>
<!-- I0&#45;&gt;Prev -->
<g id="edge1" class="edge">
<title>I0&#45;&gt;Prev</title>
<path fill="none" stroke="black" d="M51.26,-264.69C57.59,-251.68 64.88,-236.68 71.32,-223.45"/>
<polygon fill="black" stroke="black" points="74.6,-224.7 75.83,-214.17 68.31,-221.64 74.6,-224.7"/>
</g>
<!-- gamma -->
<g id="node2" class="node">
<title>gamma</title>
<ellipse fill="none" stroke="black" cx="142.36" cy="-298.38" rx="53.98" ry="37.45"/>
<text text-anchor="middle" x="142.36" y="-309.68" font-family="Times,serif" font-size="14.00">gamma</text>
<text text-anchor="middle" x="142.36" y="-294.68" font-family="Times,serif" font-size="14.00">~</text>
<text text-anchor="middle" x="142.36" y="-279.68" font-family="Times,serif" font-size="14.00">Uniform</text>
</g>
<!-- gamma&#45;&gt;Prev -->
<g id="edge2" class="edge">
<title>gamma&#45;&gt;Prev</title>
<path fill="none" stroke="black" d="M125.12,-262.61C118.92,-250.1 111.93,-236 105.72,-223.47"/>
<polygon fill="black" stroke="black" points="108.73,-221.65 101.15,-214.25 102.46,-224.76 108.73,-221.65"/>
</g>
<!-- sigma -->
<g id="node3" class="node">
<title>sigma</title>
<ellipse fill="none" stroke="black" cx="233.36" cy="-187.43" rx="70.01" ry="37.45"/>
<text text-anchor="middle" x="233.36" y="-198.73" font-family="Times,serif" font-size="14.00">sigma</text>
<text text-anchor="middle" x="233.36" y="-183.73" font-family="Times,serif" font-size="14.00">~</text>
<text text-anchor="middle" x="233.36" y="-168.73" font-family="Times,serif" font-size="14.00">HalfCauchy</text>
</g>
<!-- I(t) -->
<g id="node5" class="node">
<title>I(t)</title>
<ellipse fill="lightgrey" stroke="black" cx="99.36" cy="-76.48" rx="35.21" ry="37.45"/>
<text text-anchor="middle" x="99.36" y="-87.78" font-family="Times,serif" font-size="14.00">I(t)</text>
<text text-anchor="middle" x="99.36" y="-72.78" font-family="Times,serif" font-size="14.00">~</text>
<text text-anchor="middle" x="99.36" y="-57.78" font-family="Times,serif" font-size="14.00">Beta</text>
</g>
<!-- sigma&#45;&gt;I(t) -->
<g id="edge4" class="edge">
<title>sigma&#45;&gt;I(t)</title>
<path fill="none" stroke="black" d="M195.67,-155.79C176.66,-140.33 153.72,-121.68 134.99,-106.45"/>
<polygon fill="black" stroke="black" points="136.95,-103.54 126.99,-99.94 132.54,-108.97 136.95,-103.54"/>
</g>
<!-- Prev&#45;&gt;I(t) -->
<g id="edge3" class="edge">
<title>Prev&#45;&gt;I(t)</title>
<path fill="none" stroke="black" d="M90.93,-160.89C92.05,-149.87 93.38,-136.63 94.66,-123.97"/>
<polygon fill="black" stroke="black" points="98.15,-124.3 95.67,-114 91.18,-123.6 98.15,-124.3"/>
</g>
</g>
</svg>
