<?xml version="1.0" encoding="UTF-8" standalone="no"?>
<!DOCTYPE svg PUBLIC "-//W3C//DTD SVG 1.1//EN"
 "http://www.w3.org/Graphics/SVG/1.1/DTD/svg11.dtd">
<!-- Generated by graphviz version 2.43.0 (0)
 -->
<!-- Title: %3 Pages: 1 -->
<svg width="311pt" height="344pt"
 viewBox="0.00 0.00 311.36 343.86" xmlns="http://www.w3.org/2000/svg" xmlns:xlink="http://www.w3.org/1999/xlink">
<g id="graph0" class="graph" transform="scale(1 1) rotate(0) translate(4 339.86)">
<title>%3</title>
<polygon fill="white" stroke="transparent" points="-4,4 -4,-339.86 307.36,-339.86 307.36,4 -4,4"/>
<g id="clust1" class="cluster">
<title>cluster30</title>
<path fill="none" stroke="black" d="M162,-8C162,-8 268,-8 268,-8 274,-8 280,-14 280,-20 280,-20 280,-209.93 280,-209.93 280,-215.93 274,-221.93 268,-221.93 268,-221.93 162,-221.93 162,-221.93 156,-221.93 150,-215.93 150,-209.93 150,-209.93 150,-20 150,-20 150,-14 156,-8 162,-8"/>
<text text-anchor="middle" x="262.5" y="-15.8" font-family="Times,serif" font-size="14.00">30</text>
</g>
<!-- sigma -->
<g id="node1" class="node">
<title>sigma</title>
<ellipse fill="none" stroke="black" cx="70" cy="-187.43" rx="70.01" ry="37.45"/>
<text text-anchor="middle" x="70" y="-198.73" font-family="Times,serif" font-size="14.00">sigma</text>
<text text-anchor="middle" x="70" y="-183.73" font-family="Times,serif" font-size="14.00">~</text>
<text text-anchor="middle" x="70" y="-168.73" font-family="Times,serif" font-size="14.00">HalfCauchy</text>
</g>
<!-- I(t) -->
<g id="node5" class="node">
<title>I(t)</title>
<ellipse fill="lightgrey" stroke="black" cx="204" cy="-76.48" rx="35.21" ry="37.45"/>
<text text-anchor="middle" x="204" y="-87.78" font-family="Times,serif" font-size="14.00">I(t)</text>
<text text-anchor="middle" x="204" y="-72.78" font-family="Times,serif" font-size="14.00">~</text>
<text text-anchor="middle" x="204" y="-57.78" font-family="Times,serif" font-size="14.00">Beta</text>
</g>
<!-- sigma&#45;&gt;I(t) -->
<g id="edge3" class="edge">
<title>sigma&#45;&gt;I(t)</title>
<path fill="none" stroke="black" d="M107.69,-155.79C126.7,-140.33 149.64,-121.68 168.36,-106.45"/>
<polygon fill="black" stroke="black" points="170.82,-108.97 176.37,-99.94 166.41,-103.54 170.82,-108.97"/>
</g>
<!-- gamma -->
<g id="node2" class="node">
<title>gamma</title>
<ellipse fill="none" stroke="black" cx="161" cy="-298.38" rx="53.98" ry="37.45"/>
<text text-anchor="middle" x="161" y="-309.68" font-family="Times,serif" font-size="14.00">gamma</text>
<text text-anchor="middle" x="161" y="-294.68" font-family="Times,serif" font-size="14.00">~</text>
<text text-anchor="middle" x="161" y="-279.68" font-family="Times,serif" font-size="14.00">Uniform</text>
</g>
<!-- Prev -->
<g id="node4" class="node">
<title>Prev</title>
<polygon fill="none" stroke="black" points="272,-213.93 158,-213.93 158,-160.93 272,-160.93 272,-213.93"/>
<text text-anchor="middle" x="215" y="-198.73" font-family="Times,serif" font-size="14.00">Prev</text>
<text text-anchor="middle" x="215" y="-183.73" font-family="Times,serif" font-size="14.00">~</text>
<text text-anchor="middle" x="215" y="-168.73" font-family="Times,serif" font-size="14.00">Deterministic</text>
</g>
<!-- gamma&#45;&gt;Prev -->
<g id="edge1" class="edge">
<title>gamma&#45;&gt;Prev</title>
<path fill="none" stroke="black" d="M178.24,-262.61C184.44,-250.1 191.43,-236 197.64,-223.47"/>
<polygon fill="black" stroke="black" points="200.9,-224.76 202.21,-214.25 194.63,-221.65 200.9,-224.76"/>
</g>
<!-- I0 -->
<g id="node3" class="node">
<title>I0</title>
<ellipse fill="none" stroke="black" cx="268" cy="-298.38" rx="35.21" ry="37.45"/>
<text text-anchor="middle" x="268" y="-309.68" font-family="Times,serif" font-size="14.00">I0</text>
<text text-anchor="middle" x="268" y="-294.68" font-family="Times,serif" font-size="14.00">~</text>
<text text-anchor="middle" x="268" y="-279.68" font-family="Times,serif" font-size="14.00">Beta</text>
</g>
<!-- I0&#45;&gt;Prev -->
<g id="edge2" class="edge">
<title>I0&#45;&gt;Prev</title>
<path fill="none" stroke="black" d="M252.1,-264.69C245.77,-251.68 238.48,-236.68 232.04,-223.45"/>
<polygon fill="black" stroke="black" points="235.05,-221.64 227.53,-214.17 228.75,-224.7 235.05,-221.64"/>
</g>
<!-- Prev&#45;&gt;I(t) -->
<g id="edge4" class="edge">
<title>Prev&#45;&gt;I(t)</title>
<path fill="none" stroke="black" d="M212.42,-160.89C211.31,-149.87 209.98,-136.63 208.7,-123.97"/>
<polygon fill="black" stroke="black" points="212.18,-123.6 207.69,-114 205.21,-124.3 212.18,-123.6"/>
</g>
</g>
</svg>
